<svg width="98.99374999999999px" height="122px" xmlns="http://www.w3.org/2000/svg" viewBox="200.503125 14 98.99374999999999 122" style="background: rgba(0, 0, 0, 0);" preserveAspectRatio="xMidYMid"><defs><linearGradient id="editing-outline-gradient" x1="-0.41354545764260087" x2="1.4135454576426008" y1="0.09326335692419985" y2="0.9067366430758002"><stop offset="0" stop-color="#ee4208"></stop><stop offset="1" stop-color="#4139ff"></stop></linearGradient><filter id="editing-outline" x="-100%" y="-100%" width="300%" height="300%"><feMorphology in="SourceGraphic" operator="dilate" radius="1" result="outline"></feMorphology><feComposite operator="out" in="outline" in2="SourceAlpha"></feComposite></filter></defs><g filter="url(#editing-outline)"><g transform="translate(222.20265591144562, 96.76000022888184)"><path d="M6.53 0L-0.83 0L10.75-42.24L24.13-42.24L27.07-18.11L38.98-42.24L50.18-42.24L51.33-10.62L51.33-10.62Q51.58-4.35 54.66-2.43L54.66-2.43L54.66-2.43Q53.95-1.15 51.90 0.06L51.90 0.06L51.90 0.06Q49.86 1.28 47.14 1.28L47.14 1.28L47.14 1.28Q44.42 1.28 42.82 0.51L42.82 0.51L42.82 0.51Q41.22-0.26 40.32-1.54L40.32-1.54L40.32-1.54Q38.72-3.84 38.72-8.26L38.72-8.26L38.72-28.03L26.11 0L18.18 0L13.70-28.74L6.53 0Z" fill="url(#editing-outline-gradient)"></path></g></g><style>text {
  font-size: 64px;
  font-family: Arial Black;
  dominant-baseline: central;
  text-anchor: middle;
}</style></svg>